<svg width="286" height="38" viewBox="0 0 286 38" fill="none" xmlns="http://www.w3.org/2000/svg">
<path d="M6.85156 26.7686C7.52865 26.7686 8.06413 26.9248 8.45801 27.2373C8.85189 27.5465 9.04883 27.9616 9.04883 28.4824C9.04883 29.2148 8.60938 29.7975 7.73047 30.2305C8.29036 30.5104 8.6875 30.805 8.92188 31.1143C9.15951 31.4235 9.27832 31.7686 9.27832 32.1494C9.27832 32.7386 9.06185 33.2106 8.62891 33.5654C8.19596 33.9202 7.61003 34.0977 6.87109 34.0977C6.09635 34.0977 5.49577 33.9316 5.06934 33.5996C4.6429 33.2676 4.42969 32.7972 4.42969 32.1885C4.42969 31.7913 4.54036 31.4349 4.76172 31.1191C4.98633 30.8001 5.35254 30.5169 5.86035 30.2695C5.42415 30.0091 5.11328 29.734 4.92773 29.4443C4.74219 29.1546 4.64941 28.8291 4.64941 28.4678C4.64941 27.9502 4.85286 27.5384 5.25977 27.2324C5.66667 26.9232 6.19727 26.7686 6.85156 26.7686ZM5.52832 32.1494C5.52832 32.488 5.64714 32.7516 5.88477 32.9404C6.1224 33.126 6.44466 33.2188 6.85156 33.2188C7.27148 33.2188 7.59701 33.1227 7.82812 32.9307C8.0625 32.7354 8.17969 32.4717 8.17969 32.1396C8.17969 31.876 8.07227 31.6351 7.85742 31.417C7.64258 31.1989 7.31706 30.9971 6.88086 30.8115L6.73926 30.748C6.30957 30.9368 6.00033 31.1452 5.81152 31.373C5.62272 31.5977 5.52832 31.8564 5.52832 32.1494ZM6.8418 27.6523C6.51628 27.6523 6.25423 27.7337 6.05566 27.8965C5.8571 28.056 5.75781 28.2741 5.75781 28.5508C5.75781 28.7201 5.79362 28.8714 5.86523 29.0049C5.93685 29.1383 6.04102 29.2604 6.17773 29.3711C6.31445 29.4785 6.54557 29.6087 6.87109 29.7617C7.26172 29.5892 7.53678 29.4085 7.69629 29.2197C7.85905 29.0277 7.94043 28.8047 7.94043 28.5508C7.94043 28.2741 7.83952 28.056 7.6377 27.8965C7.43913 27.7337 7.17383 27.6523 6.8418 27.6523ZM14.7227 28.502C14.7227 28.9544 14.5908 29.332 14.3271 29.6348C14.0635 29.9342 13.6924 30.1361 13.2139 30.2402V30.2793C13.7868 30.3509 14.2165 30.5299 14.5029 30.8164C14.7894 31.0996 14.9326 31.4772 14.9326 31.9492C14.9326 32.6361 14.6901 33.1667 14.2051 33.541C13.7201 33.9121 13.0299 34.0977 12.1348 34.0977C11.3438 34.0977 10.6764 33.9691 10.1328 33.7119V32.6914C10.4355 32.8411 10.7562 32.9567 11.0947 33.0381C11.4333 33.1195 11.7588 33.1602 12.0713 33.1602C12.6247 33.1602 13.0381 33.0576 13.3115 32.8525C13.585 32.6475 13.7217 32.3301 13.7217 31.9004C13.7217 31.5195 13.5703 31.2396 13.2676 31.0605C12.9648 30.8815 12.4896 30.792 11.8418 30.792H11.2217V29.8594H11.8516C12.9909 29.8594 13.5605 29.4655 13.5605 28.6777C13.5605 28.3717 13.4613 28.1357 13.2627 27.9697C13.0641 27.8037 12.7712 27.7207 12.3838 27.7207C12.1136 27.7207 11.8532 27.7598 11.6025 27.8379C11.3519 27.9128 11.0557 28.0609 10.7139 28.2822L10.1523 27.4814C10.8066 26.9997 11.5667 26.7588 12.4326 26.7588C13.152 26.7588 13.7135 26.9134 14.1172 27.2227C14.5208 27.5319 14.7227 27.9583 14.7227 28.502ZM16.0752 33.3896C16.0752 33.152 16.137 32.9697 16.2607 32.8428C16.3844 32.7158 16.5635 32.6523 16.7979 32.6523C17.0355 32.6523 17.2161 32.7191 17.3398 32.8525C17.4635 32.9827 17.5254 33.1618 17.5254 33.3896C17.5254 33.6208 17.4619 33.8047 17.335 33.9414C17.2113 34.0749 17.0322 34.1416 16.7979 34.1416C16.5635 34.1416 16.3844 34.0749 16.2607 33.9414C16.137 33.8079 16.0752 33.624 16.0752 33.3896ZM21.0312 26.7686C21.7083 26.7686 22.2438 26.9248 22.6377 27.2373C23.0316 27.5465 23.2285 27.9616 23.2285 28.4824C23.2285 29.2148 22.7891 29.7975 21.9102 30.2305C22.4701 30.5104 22.8672 30.805 23.1016 31.1143C23.3392 31.4235 23.458 31.7686 23.458 32.1494C23.458 32.7386 23.2415 33.2106 22.8086 33.5654C22.3757 33.9202 21.7897 34.0977 21.0508 34.0977C20.276 34.0977 19.6755 33.9316 19.249 33.5996C18.8226 33.2676 18.6094 32.7972 18.6094 32.1885C18.6094 31.7913 18.7201 31.4349 18.9414 31.1191C19.166 30.8001 19.5322 30.5169 20.04 30.2695C19.6038 30.0091 19.293 29.734 19.1074 29.4443C18.9219 29.1546 18.8291 28.8291 18.8291 28.4678C18.8291 27.9502 19.0326 27.5384 19.4395 27.2324C19.8464 26.9232 20.377 26.7686 21.0312 26.7686ZM19.708 32.1494C19.708 32.488 19.8268 32.7516 20.0645 32.9404C20.3021 33.126 20.6243 33.2188 21.0312 33.2188C21.4512 33.2188 21.7767 33.1227 22.0078 32.9307C22.2422 32.7354 22.3594 32.4717 22.3594 32.1396C22.3594 31.876 22.252 31.6351 22.0371 31.417C21.8223 31.1989 21.4967 30.9971 21.0605 30.8115L20.9189 30.748C20.4893 30.9368 20.18 31.1452 19.9912 31.373C19.8024 31.5977 19.708 31.8564 19.708 32.1494ZM21.0215 27.6523C20.696 27.6523 20.4339 27.7337 20.2354 27.8965C20.0368 28.056 19.9375 28.2741 19.9375 28.5508C19.9375 28.7201 19.9733 28.8714 20.0449 29.0049C20.1165 29.1383 20.2207 29.2604 20.3574 29.3711C20.4941 29.4785 20.7253 29.6087 21.0508 29.7617C21.4414 29.5892 21.7165 29.4085 21.876 29.2197C22.0387 29.0277 22.1201 28.8047 22.1201 28.5508C22.1201 28.2741 22.0192 28.056 21.8174 27.8965C21.6188 27.7337 21.3535 27.6523 21.0215 27.6523ZM28.9023 28.502C28.9023 28.9544 28.7705 29.332 28.5068 29.6348C28.2432 29.9342 27.8721 30.1361 27.3936 30.2402V30.2793C27.9665 30.3509 28.3962 30.5299 28.6826 30.8164C28.9691 31.0996 29.1123 31.4772 29.1123 31.9492C29.1123 32.6361 28.8698 33.1667 28.3848 33.541C27.8997 33.9121 27.2096 34.0977 26.3145 34.0977C25.5234 34.0977 24.8561 33.9691 24.3125 33.7119V32.6914C24.6152 32.8411 24.9359 32.9567 25.2744 33.0381C25.613 33.1195 25.9385 33.1602 26.251 33.1602C26.8044 33.1602 27.2178 33.0576 27.4912 32.8525C27.7646 32.6475 27.9014 32.3301 27.9014 31.9004C27.9014 31.5195 27.75 31.2396 27.4473 31.0605C27.1445 30.8815 26.6693 30.792 26.0215 30.792H25.4014V29.8594H26.0312C27.1706 29.8594 27.7402 29.4655 27.7402 28.6777C27.7402 28.3717 27.641 28.1357 27.4424 27.9697C27.2438 27.8037 26.9508 27.7207 26.5635 27.7207C26.2933 27.7207 26.0329 27.7598 25.7822 27.8379C25.5316 27.9128 25.2354 28.0609 24.8936 28.2822L24.332 27.4814C24.9863 26.9997 25.7464 26.7588 26.6123 26.7588C27.3317 26.7588 27.8932 26.9134 28.2969 27.2227C28.7005 27.5319 28.9023 27.9583 28.9023 28.502Z" fill="#C4C4C4" fill-opacity="0.5"/>
<path d="M247.146 34H245.975V30.7822H242.684V34H241.517V26.8613H242.684V29.7812H245.975V26.8613H247.146V34ZM254.49 34H253.343V29.3906C253.343 28.8405 253.356 28.4043 253.382 28.082C253.307 28.1602 253.214 28.2464 253.104 28.3408C252.996 28.4352 252.632 28.7347 252.01 29.2393L251.434 28.5117L253.533 26.8613H254.49V34ZM259.246 26.7686C259.923 26.7686 260.459 26.9248 260.853 27.2373C261.246 27.5465 261.443 27.9616 261.443 28.4824C261.443 29.2148 261.004 29.7975 260.125 30.2305C260.685 30.5104 261.082 30.805 261.316 31.1143C261.554 31.4235 261.673 31.7686 261.673 32.1494C261.673 32.7386 261.456 33.2106 261.023 33.5654C260.59 33.9202 260.005 34.0977 259.266 34.0977C258.491 34.0977 257.89 33.9316 257.464 33.5996C257.037 33.2676 256.824 32.7972 256.824 32.1885C256.824 31.7913 256.935 31.4349 257.156 31.1191C257.381 30.8001 257.747 30.5169 258.255 30.2695C257.819 30.0091 257.508 29.734 257.322 29.4443C257.137 29.1546 257.044 28.8291 257.044 28.4678C257.044 27.9502 257.247 27.5384 257.654 27.2324C258.061 26.9232 258.592 26.7686 259.246 26.7686ZM257.923 32.1494C257.923 32.488 258.042 32.7516 258.279 32.9404C258.517 33.126 258.839 33.2188 259.246 33.2188C259.666 33.2188 259.992 33.1227 260.223 32.9307C260.457 32.7354 260.574 32.4717 260.574 32.1396C260.574 31.876 260.467 31.6351 260.252 31.417C260.037 31.1989 259.712 30.9971 259.275 30.8115L259.134 30.748C258.704 30.9368 258.395 31.1452 258.206 31.373C258.017 31.5977 257.923 31.8564 257.923 32.1494ZM259.236 27.6523C258.911 27.6523 258.649 27.7337 258.45 27.8965C258.252 28.056 258.152 28.2741 258.152 28.5508C258.152 28.7201 258.188 28.8714 258.26 29.0049C258.331 29.1383 258.436 29.2604 258.572 29.3711C258.709 29.4785 258.94 29.6087 259.266 29.7617C259.656 29.5892 259.931 29.4085 260.091 29.2197C260.254 29.0277 260.335 28.8047 260.335 28.5508C260.335 28.2741 260.234 28.056 260.032 27.8965C259.834 27.7337 259.568 27.6523 259.236 27.6523ZM267.117 28.502C267.117 28.9544 266.985 29.332 266.722 29.6348C266.458 29.9342 266.087 30.1361 265.608 30.2402V30.2793C266.181 30.3509 266.611 30.5299 266.897 30.8164C267.184 31.0996 267.327 31.4772 267.327 31.9492C267.327 32.6361 267.085 33.1667 266.6 33.541C266.115 33.9121 265.424 34.0977 264.529 34.0977C263.738 34.0977 263.071 33.9691 262.527 33.7119V32.6914C262.83 32.8411 263.151 32.9567 263.489 33.0381C263.828 33.1195 264.153 33.1602 264.466 33.1602C265.019 33.1602 265.433 33.0576 265.706 32.8525C265.979 32.6475 266.116 32.3301 266.116 31.9004C266.116 31.5195 265.965 31.2396 265.662 31.0605C265.359 30.8815 264.884 30.792 264.236 30.792H263.616V29.8594H264.246C265.385 29.8594 265.955 29.4655 265.955 28.6777C265.955 28.3717 265.856 28.1357 265.657 27.9697C265.459 27.8037 265.166 27.7207 264.778 27.7207C264.508 27.7207 264.248 27.7598 263.997 27.8379C263.746 27.9128 263.45 28.0609 263.108 28.2822L262.547 27.4814C263.201 26.9997 263.961 26.7588 264.827 26.7588C265.547 26.7588 266.108 26.9134 266.512 27.2227C266.915 27.5319 267.117 27.9583 267.117 28.502ZM268.47 33.3896C268.47 33.152 268.532 32.9697 268.655 32.8428C268.779 32.7158 268.958 32.6523 269.192 32.6523C269.43 32.6523 269.611 32.7191 269.734 32.8525C269.858 32.9827 269.92 33.1618 269.92 33.3896C269.92 33.6208 269.856 33.8047 269.729 33.9414C269.606 34.0749 269.427 34.1416 269.192 34.1416C268.958 34.1416 268.779 34.0749 268.655 33.9414C268.532 33.8079 268.47 33.624 268.47 33.3896ZM271.824 34L274.646 27.8818H270.936V26.8711H275.872V27.6719L273.064 34H271.824ZM279.148 29.542C279.868 29.542 280.438 29.7324 280.857 30.1133C281.277 30.4941 281.487 31.0133 281.487 31.6709C281.487 32.4326 281.248 33.0283 280.77 33.458C280.294 33.8844 279.617 34.0977 278.738 34.0977C277.941 34.0977 277.314 33.9691 276.858 33.7119V32.6719C277.122 32.8216 277.425 32.9372 277.767 33.0186C278.108 33.0999 278.426 33.1406 278.719 33.1406C279.236 33.1406 279.63 33.0251 279.9 32.7939C280.171 32.5628 280.306 32.2243 280.306 31.7783C280.306 30.9255 279.762 30.499 278.675 30.499C278.522 30.499 278.333 30.5153 278.108 30.5479C277.884 30.5771 277.687 30.6113 277.518 30.6504L277.005 30.3477L277.278 26.8613H280.989V27.8818H278.289L278.128 29.6494C278.242 29.6299 278.38 29.6071 278.543 29.5811C278.709 29.555 278.911 29.542 279.148 29.542Z" fill="#C4C4C4" fill-opacity="0.5"/>
<line x1="0.5" y1="14.5" x2="0.499999" y2="32.5" stroke="#C4C4C4" stroke-opacity="0.5" stroke-linecap="round"/>
<line x1="2.5" y1="14.5" x2="2.5" y2="23.5" stroke="#C4C4C4" stroke-opacity="0.5" stroke-linecap="round"/>
<line x1="4.5" y1="14.5" x2="4.5" y2="23.5" stroke="#C4C4C4" stroke-opacity="0.5" stroke-linecap="round"/>
<line x1="6.5" y1="14.5" x2="6.5" y2="23.5" stroke="#C4C4C4" stroke-opacity="0.5" stroke-linecap="round"/>
<line x1="8.5" y1="14.5" x2="8.5" y2="23.5" stroke="#C4C4C4" stroke-opacity="0.5" stroke-linecap="round"/>
<line x1="10.5" y1="14.5" x2="10.5" y2="23.5" stroke="#C4C4C4" stroke-opacity="0.5" stroke-linecap="round"/>
<line x1="12.5" y1="14.5" x2="12.5" y2="23.5" stroke="#C4C4C4" stroke-opacity="0.5" stroke-linecap="round"/>
<line x1="14.5" y1="14.5" x2="14.5" y2="23.5" stroke="#C4C4C4" stroke-opacity="0.5" stroke-linecap="round"/>
<line x1="16.5" y1="14.5" x2="16.5" y2="23.5" stroke="#C4C4C4" stroke-opacity="0.5" stroke-linecap="round"/>
<line x1="18.5" y1="14.5" x2="18.5" y2="23.5" stroke="#C4C4C4" stroke-opacity="0.5" stroke-linecap="round"/>
<line x1="20.5" y1="14.5" x2="20.5" y2="23.5" stroke="#C4C4C4" stroke-opacity="0.5" stroke-linecap="round"/>
<line x1="22.5" y1="14.5" x2="22.5" y2="23.5" stroke="#C4C4C4" stroke-opacity="0.5" stroke-linecap="round"/>
<line x1="24.5" y1="14.5" x2="24.5" y2="23.5" stroke="#C4C4C4" stroke-opacity="0.5" stroke-linecap="round"/>
<line x1="26.5" y1="14.5" x2="26.5" y2="23.5" stroke="#C4C4C4" stroke-opacity="0.5" stroke-linecap="round"/>
<line x1="28.5" y1="14.5" x2="28.5" y2="23.5" stroke="#C4C4C4" stroke-opacity="0.5" stroke-linecap="round"/>
<line x1="30.5" y1="14.5" x2="30.5" y2="23.5" stroke="#C4C4C4" stroke-opacity="0.5" stroke-linecap="round"/>
<line x1="32.5" y1="14.5" x2="32.5" y2="23.5" stroke="#C4C4C4" stroke-opacity="0.5" stroke-linecap="round"/>
<line x1="34.5" y1="14.5" x2="34.5" y2="23.5" stroke="#C4C4C4" stroke-opacity="0.5" stroke-linecap="round"/>
<line x1="36.5" y1="14.5" x2="36.5" y2="23.5" stroke="#C4C4C4" stroke-opacity="0.5" stroke-linecap="round"/>
<line x1="38.5" y1="14.5" x2="38.5" y2="23.5" stroke="#C4C4C4" stroke-opacity="0.5" stroke-linecap="round"/>
<line x1="40.5" y1="14.5" x2="40.5" y2="23.5" stroke="#C4C4C4" stroke-opacity="0.5" stroke-linecap="round"/>
<line x1="42.5" y1="14.5" x2="42.5" y2="23.5" stroke="#C4C4C4" stroke-opacity="0.5" stroke-linecap="round"/>
<line x1="44.5" y1="14.5" x2="44.5" y2="23.5" stroke="#C4C4C4" stroke-opacity="0.5" stroke-linecap="round"/>
<line x1="46.5" y1="14.5" x2="46.5" y2="23.5" stroke="#C4C4C4" stroke-opacity="0.5" stroke-linecap="round"/>
<line x1="48.5" y1="14.5" x2="48.5" y2="23.5" stroke="#C4C4C4" stroke-opacity="0.5" stroke-linecap="round"/>
<line x1="50.5" y1="14.5" x2="50.5" y2="23.5" stroke="#C4C4C4" stroke-opacity="0.5" stroke-linecap="round"/>
<line x1="52.5" y1="14.5" x2="52.5" y2="23.5" stroke="#C4C4C4" stroke-opacity="0.5" stroke-linecap="round"/>
<line x1="54.5" y1="14.5" x2="54.5" y2="23.5" stroke="#C4C4C4" stroke-opacity="0.5" stroke-linecap="round"/>
<line x1="56.5" y1="14.5" x2="56.5" y2="23.5" stroke="#C4C4C4" stroke-opacity="0.5" stroke-linecap="round"/>
<line x1="58.5" y1="14.5" x2="58.5" y2="23.5" stroke="#C4C4C4" stroke-opacity="0.5" stroke-linecap="round"/>
<line x1="60.5" y1="14.5" x2="60.5" y2="23.5" stroke="#C4C4C4" stroke-opacity="0.5" stroke-linecap="round"/>
<line x1="62.5" y1="14.5" x2="62.5" y2="23.5" stroke="#C4C4C4" stroke-opacity="0.5" stroke-linecap="round"/>
<line x1="64.5" y1="14.5" x2="64.5" y2="23.5" stroke="#C4C4C4" stroke-opacity="0.5" stroke-linecap="round"/>
<line x1="66.5" y1="14.5" x2="66.5" y2="23.5" stroke="#C4C4C4" stroke-opacity="0.5" stroke-linecap="round"/>
<line x1="68.5" y1="14.5" x2="68.5" y2="23.5" stroke="#C4C4C4" stroke-opacity="0.5" stroke-linecap="round"/>
<line x1="70.5" y1="14.5" x2="70.5" y2="23.5" stroke="#C4C4C4" stroke-opacity="0.5" stroke-linecap="round"/>
<line x1="72.5" y1="14.5" x2="72.5" y2="23.5" stroke="#C4C4C4" stroke-opacity="0.5" stroke-linecap="round"/>
<line x1="74.5" y1="14.5" x2="74.5" y2="23.5" stroke="#C4C4C4" stroke-opacity="0.5" stroke-linecap="round"/>
<line x1="76.5" y1="14.5" x2="76.5" y2="23.5" stroke="#C4C4C4" stroke-opacity="0.5" stroke-linecap="round"/>
<line x1="78.5" y1="14.5" x2="78.5" y2="23.5" stroke="#C4C4C4" stroke-opacity="0.5" stroke-linecap="round"/>
<line x1="80.5" y1="14.5" x2="80.5" y2="23.5" stroke="#C4C4C4" stroke-opacity="0.5" stroke-linecap="round"/>
<line x1="82.5" y1="14.5" x2="82.5" y2="23.5" stroke="#C4C4C4" stroke-opacity="0.5" stroke-linecap="round"/>
<line x1="84.5" y1="14.5" x2="84.5" y2="23.5" stroke="#C4C4C4" stroke-opacity="0.5" stroke-linecap="round"/>
<line x1="86.5" y1="14.5" x2="86.5" y2="23.5" stroke="#C4C4C4" stroke-opacity="0.5" stroke-linecap="round"/>
<line x1="88.5" y1="14.5" x2="88.5" y2="23.5" stroke="#C4C4C4" stroke-opacity="0.5" stroke-linecap="round"/>
<line x1="90.5" y1="14.5" x2="90.5" y2="23.5" stroke="#C4C4C4" stroke-opacity="0.5" stroke-linecap="round"/>
<line x1="92.5" y1="14.5" x2="92.5" y2="23.5" stroke="#C4C4C4" stroke-opacity="0.5" stroke-linecap="round"/>
<line x1="94.5" y1="14.5" x2="94.5" y2="23.5" stroke="#C4C4C4" stroke-opacity="0.5" stroke-linecap="round"/>
<line x1="96.5" y1="14.5" x2="96.5" y2="23.5" stroke="#C4C4C4" stroke-opacity="0.5" stroke-linecap="round"/>
<line x1="98.5" y1="14.5" x2="98.5" y2="23.5" stroke="#C4C4C4" stroke-opacity="0.5" stroke-linecap="round"/>
<line x1="100.5" y1="14.5" x2="100.5" y2="23.5" stroke="#C4C4C4" stroke-opacity="0.5" stroke-linecap="round"/>
<line x1="102.5" y1="14.5" x2="102.5" y2="23.5" stroke="#C4C4C4" stroke-opacity="0.5" stroke-linecap="round"/>
<line x1="104.5" y1="14.5" x2="104.5" y2="23.5" stroke="#C4C4C4" stroke-opacity="0.5" stroke-linecap="round"/>
<line x1="106.5" y1="14.5" x2="106.5" y2="23.5" stroke="#C4C4C4" stroke-opacity="0.5" stroke-linecap="round"/>
<line x1="108.5" y1="14.5" x2="108.5" y2="23.5" stroke="#C4C4C4" stroke-opacity="0.5" stroke-linecap="round"/>
<line x1="110.5" y1="14.5" x2="110.5" y2="23.5" stroke="#C4C4C4" stroke-opacity="0.5" stroke-linecap="round"/>
<line x1="112.5" y1="14.5" x2="112.5" y2="23.5" stroke="#C4C4C4" stroke-opacity="0.5" stroke-linecap="round"/>
<line x1="114.5" y1="14.5" x2="114.5" y2="23.5" stroke="#C4C4C4" stroke-opacity="0.5" stroke-linecap="round"/>
<line x1="116.5" y1="14.5" x2="116.5" y2="23.5" stroke="#C4C4C4" stroke-opacity="0.5" stroke-linecap="round"/>
<line x1="118.5" y1="14.5" x2="118.5" y2="23.5" stroke="#C4C4C4" stroke-opacity="0.5" stroke-linecap="round"/>
<line x1="120.5" y1="14.5" x2="120.5" y2="23.5" stroke="#C4C4C4" stroke-opacity="0.5" stroke-linecap="round"/>
<line x1="122.5" y1="14.5" x2="122.5" y2="23.5" stroke="#C4C4C4" stroke-opacity="0.5" stroke-linecap="round"/>
<line x1="124.5" y1="14.5" x2="124.5" y2="23.5" stroke="#C4C4C4" stroke-opacity="0.5" stroke-linecap="round"/>
<line x1="126.5" y1="14.5" x2="126.5" y2="23.5" stroke="#C4C4C4" stroke-opacity="0.5" stroke-linecap="round"/>
<line x1="128.5" y1="14.5" x2="128.5" y2="23.5" stroke="#C4C4C4" stroke-opacity="0.5" stroke-linecap="round"/>
<line x1="130.5" y1="14.5" x2="130.5" y2="23.5" stroke="#C4C4C4" stroke-opacity="0.5" stroke-linecap="round"/>
<line x1="132.5" y1="14.5" x2="132.5" y2="23.5" stroke="#C4C4C4" stroke-opacity="0.5" stroke-linecap="round"/>
<line x1="134.5" y1="14.5" x2="134.5" y2="23.5" stroke="#C4C4C4" stroke-opacity="0.5" stroke-linecap="round"/>
<line x1="136.5" y1="14.5" x2="136.5" y2="23.5" stroke="#C4C4C4" stroke-opacity="0.5" stroke-linecap="round"/>
<line x1="138.5" y1="14.5" x2="138.5" y2="23.5" stroke="#C4C4C4" stroke-opacity="0.5" stroke-linecap="round"/>
<line x1="140.5" y1="14.5" x2="140.5" y2="23.5" stroke="#C4C4C4" stroke-opacity="0.5" stroke-linecap="round"/>
<line x1="142.5" y1="14.5" x2="142.5" y2="23.5" stroke="#C4C4C4" stroke-opacity="0.5" stroke-linecap="round"/>
<line x1="144.5" y1="14.5" x2="144.5" y2="23.5" stroke="#C4C4C4" stroke-opacity="0.5" stroke-linecap="round"/>
<line x1="146.5" y1="14.5" x2="146.5" y2="23.5" stroke="#C4C4C4" stroke-opacity="0.5" stroke-linecap="round"/>
<line x1="148.5" y1="14.5" x2="148.5" y2="23.5" stroke="#C4C4C4" stroke-opacity="0.5" stroke-linecap="round"/>
<line x1="150.5" y1="14.5" x2="150.5" y2="23.5" stroke="#C4C4C4" stroke-opacity="0.5" stroke-linecap="round"/>
<line x1="152.5" y1="14.5" x2="152.5" y2="23.5" stroke="#C4C4C4" stroke-opacity="0.5" stroke-linecap="round"/>
<line x1="154.5" y1="14.5" x2="154.5" y2="23.5" stroke="#C4C4C4" stroke-opacity="0.5" stroke-linecap="round"/>
<line x1="156.5" y1="14.5" x2="156.5" y2="23.5" stroke="#C4C4C4" stroke-opacity="0.5" stroke-linecap="round"/>
<line x1="158.5" y1="14.5" x2="158.5" y2="23.5" stroke="#C4C4C4" stroke-opacity="0.5" stroke-linecap="round"/>
<line x1="160.5" y1="14.5" x2="160.5" y2="23.5" stroke="#C4C4C4" stroke-opacity="0.5" stroke-linecap="round"/>
<line x1="171.5" y1="14.5" x2="171.5" y2="23.5" stroke="#C4C4C4" stroke-opacity="0.5" stroke-linecap="round"/>
<circle cx="166" cy="19" r="3" fill="#BB9E67"/>
<line x1="173.5" y1="14.5" x2="173.5" y2="23.5" stroke="#C4C4C4" stroke-opacity="0.5" stroke-linecap="round"/>
<line x1="175.5" y1="14.5" x2="175.5" y2="23.5" stroke="#C4C4C4" stroke-opacity="0.5" stroke-linecap="round"/>
<line x1="177.5" y1="14.5" x2="177.5" y2="23.5" stroke="#C4C4C4" stroke-opacity="0.5" stroke-linecap="round"/>
<line x1="179.5" y1="14.5" x2="179.5" y2="23.5" stroke="#C4C4C4" stroke-opacity="0.5" stroke-linecap="round"/>
<line x1="181.5" y1="14.5" x2="181.5" y2="23.5" stroke="#C4C4C4" stroke-opacity="0.5" stroke-linecap="round"/>
<line x1="183.5" y1="14.5" x2="183.5" y2="23.5" stroke="#C4C4C4" stroke-opacity="0.5" stroke-linecap="round"/>
<line x1="185.5" y1="14.5" x2="185.5" y2="23.5" stroke="#C4C4C4" stroke-opacity="0.5" stroke-linecap="round"/>
<line x1="187.5" y1="14.5" x2="187.5" y2="23.5" stroke="#C4C4C4" stroke-opacity="0.5" stroke-linecap="round"/>
<line x1="189.5" y1="14.5" x2="189.5" y2="23.5" stroke="#C4C4C4" stroke-opacity="0.5" stroke-linecap="round"/>
<line x1="191.5" y1="14.5" x2="191.5" y2="23.5" stroke="#C4C4C4" stroke-opacity="0.5" stroke-linecap="round"/>
<line x1="193.5" y1="14.5" x2="193.5" y2="23.5" stroke="#C4C4C4" stroke-opacity="0.5" stroke-linecap="round"/>
<line x1="195.5" y1="14.5" x2="195.5" y2="23.5" stroke="#C4C4C4" stroke-opacity="0.5" stroke-linecap="round"/>
<line x1="197.5" y1="14.5" x2="197.5" y2="23.5" stroke="#C4C4C4" stroke-opacity="0.5" stroke-linecap="round"/>
<line x1="199.5" y1="14.5" x2="199.5" y2="37.5" stroke="#C4C4C4" stroke-linecap="round"/>
<line x1="201.5" y1="14.5" x2="201.5" y2="23.5" stroke="#C4C4C4" stroke-opacity="0.5" stroke-linecap="round"/>
<line x1="203.5" y1="14.5" x2="203.5" y2="23.5" stroke="#C4C4C4" stroke-opacity="0.5" stroke-linecap="round"/>
<line x1="205.5" y1="14.5" x2="205.5" y2="23.5" stroke="#C4C4C4" stroke-opacity="0.5" stroke-linecap="round"/>
<line x1="207.5" y1="14.5" x2="207.5" y2="23.5" stroke="#C4C4C4" stroke-opacity="0.5" stroke-linecap="round"/>
<line x1="209.5" y1="14.5" x2="209.5" y2="23.5" stroke="#C4C4C4" stroke-opacity="0.5" stroke-linecap="round"/>
<line x1="211.5" y1="14.5" x2="211.5" y2="23.5" stroke="#C4C4C4" stroke-opacity="0.5" stroke-linecap="round"/>
<line x1="213.5" y1="14.5" x2="213.5" y2="23.5" stroke="#C4C4C4" stroke-opacity="0.5" stroke-linecap="round"/>
<line x1="215.5" y1="14.5" x2="215.5" y2="23.5" stroke="#C4C4C4" stroke-opacity="0.5" stroke-linecap="round"/>
<line x1="217.5" y1="14.5" x2="217.5" y2="23.5" stroke="#C4C4C4" stroke-opacity="0.5" stroke-linecap="round"/>
<line x1="219.5" y1="14.5" x2="219.5" y2="23.5" stroke="#C4C4C4" stroke-opacity="0.5" stroke-linecap="round"/>
<line x1="221.5" y1="14.5" x2="221.5" y2="23.5" stroke="#C4C4C4" stroke-opacity="0.5" stroke-linecap="round"/>
<line x1="223.5" y1="0.5" x2="223.5" y2="23.5" stroke="#15E3B5" stroke-linecap="round"/>
<line x1="225.5" y1="14.5" x2="225.5" y2="23.5" stroke="#C4C4C4" stroke-opacity="0.5" stroke-linecap="round"/>
<line x1="227.5" y1="14.5" x2="227.5" y2="23.5" stroke="#C4C4C4" stroke-opacity="0.5" stroke-linecap="round"/>
<line x1="229.5" y1="14.5" x2="229.5" y2="23.5" stroke="#C4C4C4" stroke-opacity="0.5" stroke-linecap="round"/>
<line x1="231.5" y1="14.5" x2="231.5" y2="23.5" stroke="#C4C4C4" stroke-opacity="0.5" stroke-linecap="round"/>
<line x1="233.5" y1="14.5" x2="233.5" y2="23.5" stroke="#C4C4C4" stroke-opacity="0.5" stroke-linecap="round"/>
<line x1="235.5" y1="14.5" x2="235.5" y2="23.5" stroke="#C4C4C4" stroke-opacity="0.5" stroke-linecap="round"/>
<line x1="237.5" y1="14.5" x2="237.5" y2="23.5" stroke="#C4C4C4" stroke-opacity="0.5" stroke-linecap="round"/>
<line x1="239.5" y1="14.5" x2="239.5" y2="23.5" stroke="#C4C4C4" stroke-opacity="0.5" stroke-linecap="round"/>
<line x1="241.5" y1="14.5" x2="241.5" y2="23.5" stroke="#C4C4C4" stroke-opacity="0.5" stroke-linecap="round"/>
<line x1="243.5" y1="14.5" x2="243.5" y2="23.5" stroke="#C4C4C4" stroke-opacity="0.5" stroke-linecap="round"/>
<line x1="245.5" y1="14.5" x2="245.5" y2="23.5" stroke="#C4C4C4" stroke-opacity="0.5" stroke-linecap="round"/>
<line x1="247.5" y1="14.5" x2="247.5" y2="23.5" stroke="#C4C4C4" stroke-opacity="0.5" stroke-linecap="round"/>
<line x1="249.5" y1="14.5" x2="249.5" y2="23.5" stroke="#C4C4C4" stroke-opacity="0.5" stroke-linecap="round"/>
<line x1="251.5" y1="14.5" x2="251.5" y2="23.5" stroke="#C4C4C4" stroke-opacity="0.5" stroke-linecap="round"/>
<line x1="253.5" y1="14.5" x2="253.5" y2="23.5" stroke="#C4C4C4" stroke-opacity="0.5" stroke-linecap="round"/>
<line x1="255.5" y1="14.5" x2="255.5" y2="23.5" stroke="#C4C4C4" stroke-opacity="0.5" stroke-linecap="round"/>
<line x1="257.5" y1="14.5" x2="257.5" y2="23.5" stroke="#C4C4C4" stroke-opacity="0.5" stroke-linecap="round"/>
<line x1="259.5" y1="14.5" x2="259.5" y2="23.5" stroke="#C4C4C4" stroke-opacity="0.5" stroke-linecap="round"/>
<line x1="261.5" y1="14.5" x2="261.5" y2="23.5" stroke="#C4C4C4" stroke-opacity="0.5" stroke-linecap="round"/>
<line x1="263.5" y1="14.5" x2="263.5" y2="23.5" stroke="#C4C4C4" stroke-opacity="0.5" stroke-linecap="round"/>
<line x1="265.5" y1="14.5" x2="265.5" y2="23.5" stroke="#C4C4C4" stroke-opacity="0.5" stroke-linecap="round"/>
<line x1="267.5" y1="14.5" x2="267.5" y2="23.5" stroke="#C4C4C4" stroke-opacity="0.5" stroke-linecap="round"/>
<line x1="269.5" y1="14.5" x2="269.5" y2="23.5" stroke="#C4C4C4" stroke-opacity="0.5" stroke-linecap="round"/>
<line x1="271.5" y1="14.5" x2="271.5" y2="23.5" stroke="#C4C4C4" stroke-opacity="0.5" stroke-linecap="round"/>
<line x1="273.5" y1="14.5" x2="273.5" y2="23.5" stroke="#C4C4C4" stroke-opacity="0.5" stroke-linecap="round"/>
<line x1="275.5" y1="14.5" x2="275.5" y2="23.5" stroke="#C4C4C4" stroke-opacity="0.5" stroke-linecap="round"/>
<line x1="277.5" y1="14.5" x2="277.5" y2="23.5" stroke="#C4C4C4" stroke-opacity="0.5" stroke-linecap="round"/>
<line x1="279.5" y1="14.5" x2="279.5" y2="23.5" stroke="#C4C4C4" stroke-opacity="0.5" stroke-linecap="round"/>
<line x1="281.5" y1="14.5" x2="281.5" y2="23.5" stroke="#C4C4C4" stroke-opacity="0.5" stroke-linecap="round"/>
<line x1="283.5" y1="14.5" x2="283.5" y2="23.5" stroke="#C4C4C4" stroke-opacity="0.5" stroke-linecap="round"/>
<line x1="285.5" y1="14.5" x2="285.5" y2="32.5" stroke="#C4C4C4" stroke-opacity="0.5" stroke-linecap="round"/>
</svg>
