<svg width="163" height="163" viewBox="0 0 163 163" fill="none" xmlns="http://www.w3.org/2000/svg">
<path d="M70.566 88.4336H73.109C74.2887 88.4336 75.1402 88.6055 75.6637 88.9492C76.191 89.293 76.4547 89.8359 76.4547 90.5781C76.4547 91.0781 76.3258 91.4941 76.068 91.8262C75.8102 92.1582 75.4391 92.3672 74.9547 92.4531V92.5117C75.5562 92.625 75.9977 92.8496 76.2789 93.1855C76.5641 93.5176 76.7066 93.9688 76.7066 94.5391C76.7066 95.3086 76.4371 95.9121 75.898 96.3496C75.3629 96.7832 74.6168 97 73.6598 97H70.566V88.4336ZM71.9664 91.9727H73.3141C73.9 91.9727 74.3277 91.8809 74.5973 91.6973C74.8668 91.5098 75.0016 91.1934 75.0016 90.748C75.0016 90.3457 74.8551 90.0547 74.5621 89.875C74.273 89.6953 73.8121 89.6055 73.1793 89.6055H71.9664V91.9727ZM71.9664 93.1094V95.8223H73.4547C74.0406 95.8223 74.482 95.7109 74.7789 95.4883C75.0797 95.2617 75.2301 94.9062 75.2301 94.4219C75.2301 93.9766 75.0777 93.6465 74.773 93.4316C74.4684 93.2168 74.0055 93.1094 73.3844 93.1094H71.9664ZM85.8027 88.4336V93.9766C85.8027 94.6094 85.666 95.1641 85.3926 95.6406C85.123 96.1133 84.7305 96.4785 84.2148 96.7363C83.7031 96.9902 83.0898 97.1172 82.375 97.1172C81.3125 97.1172 80.4863 96.8359 79.8965 96.2734C79.3066 95.7109 79.0117 94.9375 79.0117 93.9531V88.4336H80.418V93.8535C80.418 94.5605 80.582 95.082 80.9102 95.418C81.2383 95.7539 81.7422 95.9219 82.4219 95.9219C83.7422 95.9219 84.4023 95.2285 84.4023 93.8418V88.4336H85.8027ZM91.0141 92.3418L93.0414 88.4336H94.5648L91.7113 93.6777V97H90.3051V93.7246L87.4633 88.4336H88.9867L91.0141 92.3418Z" fill="#C4C4C4"/>
<path d="M81.9996 75L128 24.9999" stroke="#C4C4C4" stroke-opacity="0.2" stroke-dasharray="5 5"/>
<path d="M154.85 81.5C159.351 81.5 163.042 77.8419 162.593 73.3633C160.725 54.7364 152.483 37.225 139.129 23.8708C123.845 8.58659 103.115 1.6319e-06 81.5 0C59.8849 -1.6319e-06 39.155 8.58658 23.8708 23.8708C10.5166 37.225 2.27531 54.7364 0.406935 73.3633C-0.042297 77.8419 3.64888 81.5 8.15 81.5C12.6511 81.5 16.2474 77.8369 16.8085 73.3709C18.6045 59.0761 25.1012 45.6921 35.3966 35.3966C47.624 23.1693 64.2079 16.3 81.5 16.3C98.7921 16.3 115.376 23.1693 127.603 35.3966C137.899 45.6921 144.396 59.0761 146.192 73.3709C146.753 77.8369 150.349 81.5 154.85 81.5Z" fill="#323438"/>
<path d="M8.15 81.5C3.64888 81.5 -0.0422429 77.842 0.407098 73.3634C1.84343 59.0473 7.05127 45.3138 15.5651 33.5955L28.7521 43.1764C22.2627 52.1082 18.1742 62.5035 16.8087 73.371C16.2475 77.837 12.6511 81.5 8.15 81.5Z" fill="#F6544C"/>
<path d="M15.5651 33.5955C25.6816 19.6714 39.9464 9.30739 56.3152 3.98887L61.3521 19.4911C48.2571 23.7459 36.8453 32.0371 28.7521 43.1764L15.5651 33.5955Z" fill="#F6544C" fill-opacity="0.5"/>
<path d="M56.3151 3.9889C72.6839 -1.32964 90.3162 -1.32963 106.685 3.98891L101.648 19.4911C88.5529 15.2363 74.4471 15.2363 61.3521 19.4911L56.3151 3.9889Z" fill="#323438"/>
<path d="M106.685 3.9889C123.054 9.30743 137.318 19.6715 147.435 33.5956L134.248 43.1764C126.155 32.0372 114.743 23.7459 101.648 19.4911L106.685 3.9889Z" fill="#15E3B5" fill-opacity="0.5"/>
<path d="M147.435 33.5955C155.949 45.3138 161.157 59.0473 162.593 73.3634C163.042 77.8421 159.351 81.5 154.85 81.5C150.349 81.5 146.753 77.837 146.191 73.371C144.826 62.5035 140.737 52.1082 134.248 43.1764L147.435 33.5955Z" fill="#15E3B5"/>
<mask id="path-9-inside-1_1_616" fill="white">
<path d="M154.85 81.5C159.351 81.5 163.042 77.8419 162.593 73.3633C160.725 54.7364 152.483 37.225 139.129 23.8708C123.845 8.58659 103.115 1.6319e-06 81.5 0C59.8849 -1.6319e-06 39.155 8.58658 23.8708 23.8708C10.5166 37.225 2.27531 54.7364 0.406935 73.3633C-0.042297 77.8419 3.64888 81.5 8.15 81.5C12.6511 81.5 16.2474 77.8369 16.8085 73.3709C18.6045 59.0761 25.1012 45.6921 35.3966 35.3966C47.624 23.1693 64.2079 16.3 81.5 16.3C98.7921 16.3 115.376 23.1693 127.603 35.3966C137.899 45.6921 144.396 59.0761 146.192 73.3709C146.753 77.8369 150.349 81.5 154.85 81.5Z"/>
</mask>
<path d="M154.85 81.5C159.351 81.5 163.042 77.8419 162.593 73.3633C160.725 54.7364 152.483 37.225 139.129 23.8708C123.845 8.58659 103.115 1.6319e-06 81.5 0C59.8849 -1.6319e-06 39.155 8.58658 23.8708 23.8708C10.5166 37.225 2.27531 54.7364 0.406935 73.3633C-0.042297 77.8419 3.64888 81.5 8.15 81.5C12.6511 81.5 16.2474 77.8369 16.8085 73.3709C18.6045 59.0761 25.1012 45.6921 35.3966 35.3966C47.624 23.1693 64.2079 16.3 81.5 16.3C98.7921 16.3 115.376 23.1693 127.603 35.3966C137.899 45.6921 144.396 59.0761 146.192 73.3709C146.753 77.8369 150.349 81.5 154.85 81.5Z" stroke="#C4C4C4" stroke-opacity="0.1" stroke-width="2" mask="url(#path-9-inside-1_1_616)"/>
</svg>
